<svg width="127" height="107" viewBox="0 0 127 107" fill="none" xmlns="http://www.w3.org/2000/svg">
<path d="M90.3747 63.0079H108.858V31.7673H101.814C100.871 31.7673 100.109 31.0028 100.109 30.0685C100.109 29.1289 100.877 28.3698 101.814 28.3698H110.558C111.501 28.3698 112.263 29.1342 112.263 30.0685V39.3214L124.352 32.6166C124.624 32.4362 124.943 32.33 125.295 32.33C126.238 32.33 127 33.0944 127 34.0287V60.7303C126.995 61.0117 126.925 61.293 126.782 61.5531C126.329 62.3707 125.29 62.6626 124.469 62.2114L112.263 55.4429V64.6958C112.263 65.6354 111.495 66.3945 110.558 66.3945H92.1167V97.0358C92.1167 99.775 90.9925 102.27 89.181 104.075C87.3695 105.88 84.8652 107 82.116 107H10.001C7.2518 107 4.74753 105.88 2.93603 104.075C1.12453 102.27 0.000340808 99.775 0.000340808 97.0358V92.8792C0.000340808 91.9396 0.767579 91.1805 1.70532 91.1805C2.64838 91.1805 3.41029 91.9449 3.41029 92.8792V97.0358C3.41029 98.8407 4.15089 100.486 5.34973 101.676C6.54321 102.865 8.19486 103.608 10.0065 103.608H82.1215C83.933 103.608 85.5847 102.87 86.7782 101.676C87.9717 100.486 88.7177 98.8409 88.7177 97.0358V66.3945H66.036C65.093 66.3945 64.3311 65.6301 64.3311 64.6958V44.9686H10.0065C8.19499 44.9686 6.54321 45.7065 5.34973 46.9009C4.15092 48.0848 3.41029 49.7304 3.41029 51.5407V81.2851C3.41029 82.2247 2.64305 82.9838 1.70532 82.9838C0.762246 82.9838 0.000340808 82.2194 0.000340808 81.2851V51.5407C0.000340808 48.8015 1.12456 46.3117 2.94135 44.5015C4.74753 42.6913 7.2518 41.5712 10.0064 41.5712H64.3309V30.0621C64.3309 29.1225 65.0982 28.3634 66.0359 28.3634H90.1933C91.1364 28.3634 91.8983 29.1278 91.8983 30.0621C91.8983 31.0018 91.1311 31.7609 90.1933 31.7609H67.7409V62.9961H90.3802L90.3747 63.0079ZM11.7113 13.3882C11.2264 14.1898 10.1821 14.4393 9.37763 13.9615C8.5731 13.4784 8.32267 12.438 8.80221 11.6364C11.008 8.02121 14.077 5.10684 17.6468 3.10558C21.2166 1.10419 25.3085 0 29.5444 0C33.7802 0 37.8615 1.10419 41.442 3.10558C45.0118 5.10698 48.0807 8.01605 50.2866 11.6364C50.7714 12.438 50.5157 13.4732 49.7111 13.9615C48.9066 14.4446 47.8676 14.1898 47.3775 13.3882C45.4914 10.2933 42.854 7.79292 39.7744 6.06768C36.7054 4.34773 33.189 3.39752 29.5445 3.39752C25.9001 3.39752 22.3837 4.34776 19.3147 6.06768C16.2351 7.79292 13.5977 10.2933 11.7063 13.3882H11.7113ZM17.2152 22.8959C16.7303 23.6975 15.686 23.947 14.8816 23.4692C14.077 22.9861 13.8266 21.9456 14.3061 21.1441C15.9259 18.4845 18.1796 16.3452 20.801 14.8799C23.4277 13.4095 26.4274 12.5972 29.5389 12.5972C32.6504 12.5972 35.6502 13.4094 38.2768 14.8799C40.8983 16.3451 43.152 18.4897 44.7717 21.1441C45.2565 21.9457 45.0008 22.9809 44.1963 23.4692C43.3917 23.9523 42.3527 23.6975 41.8626 22.8959C40.5573 20.7618 38.7297 19.0259 36.6038 17.8367C34.4779 16.6476 32.0537 15.9893 29.5335 15.9893C27.0133 15.9893 24.5837 16.6476 22.4578 17.8367C20.3319 19.0312 18.4992 20.7617 17.199 22.8959H17.2152ZM22.7191 32.3983C22.2343 33.1998 21.19 33.4494 20.3855 32.9716C19.581 32.4885 19.3305 31.448 19.8101 30.6465C20.8437 28.9477 22.2876 27.5781 23.9553 26.6438C25.6337 25.7042 27.5517 25.1893 29.5392 25.1893C31.5212 25.1893 33.4447 25.7095 35.123 26.6438C36.7961 27.5834 38.2346 28.9477 39.2683 30.6465C39.7532 31.4481 39.4974 32.4833 38.6929 32.9716C37.8883 33.4547 36.8493 33.1999 36.3592 32.3983C35.64 31.2197 34.6277 30.2642 33.4501 29.6006C32.278 28.9423 30.9299 28.5814 29.534 28.5814C28.1381 28.5814 26.7901 28.9423 25.6179 29.6006C24.4404 30.2589 23.428 31.2197 22.7088 32.3983H22.7191ZM112.273 43.1959V51.5782L123.605 57.8583V36.9215L112.273 43.2016V43.1959ZM95.8243 31.7665C94.8813 31.7665 94.1194 31.002 94.1194 30.0677C94.1194 29.1281 94.8866 28.369 95.8243 28.369H96.1813C97.1244 28.369 97.8863 29.1334 97.8863 30.0677C97.8863 31.0073 97.119 31.7665 96.1813 31.7665H95.8243ZM58.0271 75.7585L35.7874 88.5576C34.9775 89.0247 33.9332 88.7487 33.4644 87.9418C33.3099 87.6711 33.2353 87.3844 33.2353 87.0924L33.23 61.4944C33.23 60.5547 33.9972 59.7956 34.935 59.7956C35.2919 59.7956 35.6169 59.9018 35.894 60.0876L58.0314 72.8282C58.8412 73.2953 59.1236 74.3305 58.6601 75.1374C58.5056 75.4081 58.2818 75.6205 58.0314 75.7638L58.0271 75.7585ZM45.2132 79.2251L53.7914 74.2934L36.6407 64.4301V84.1573L45.2081 79.2256L45.2132 79.2251ZM3.40995 87.2676C3.40995 88.2073 2.64271 88.9664 1.70497 88.9664C0.761905 88.9664 0 88.2019 0 87.2676V86.912C0 85.9723 0.767238 85.2132 1.70497 85.2132C2.64804 85.2132 3.40995 85.9776 3.40995 86.912V87.2676Z" fill="#F0F0F0"/>
</svg>
