<svg width="40" height="25" viewBox="0 0 40 25" fill="none" xmlns="http://www.w3.org/2000/svg">
<path d="M36.6663 3.33333H24.9997V0H36.6663V3.33333ZM39.5429 20C38.8062 22.1617 36.1613 25 31.0413 25C25.9181 25 21.7681 22.1183 21.7681 15.5417C21.7681 9.025 25.6431 5.675 30.878 5.675C36.0146 5.675 39.1512 8.645 39.8362 13.0517C39.9662 13.895 40.0179 15.0317 39.9946 16.6183H26.6164C26.833 21.97 32.4213 22.1383 34.263 20H39.5429ZM26.733 13.3333H35.008C34.833 10.755 33.1146 9.635 30.8797 9.635C28.4364 9.635 27.0847 10.915 26.733 13.3333ZM10.7766 24.98H0V0.0349998H11.5882C20.7148 0.17 20.8881 9.10833 16.1215 11.545C21.8898 13.645 22.0831 24.98 10.7766 24.98ZM4.99995 10H10.9732C15.1532 10 15.8165 5 10.4532 5H4.99995V10ZM10.6516 15H4.99995V20.0267H10.5682C15.6598 20.0267 15.3482 15 10.6516 15Z" fill="#F0F0F0"/>
</svg>
