<svg width="93" height="93" viewBox="0 0 93 93" fill="none" xmlns="http://www.w3.org/2000/svg">
<path d="M85.4762 92.9684H7.4922C3.3555 92.9645 0.0039 89.6129 0 85.4762V7.4922C0.003906 3.3555 3.3555 0.0039 7.4922 0H85.4762C89.6129 0.003906 92.9645 3.3555 92.9684 7.4922V85.4762C92.9645 89.6129 89.6129 92.9645 85.4762 92.9684ZM7.4922 3.1244C5.082 3.12831 3.1289 5.0814 3.125 7.4916V85.4756C3.12891 87.8858 5.082 89.8389 7.4922 89.8428H85.4762C87.8864 89.8389 89.8395 87.8858 89.8434 85.4756V7.4916C89.8395 5.0814 87.8864 3.1283 85.4762 3.1244H7.4922Z" fill="#F0F0F0"/>
<path d="M91.4065 21.5933H1.5625C0.69922 21.5933 0 20.8901 0 20.0308C0 19.1675 0.69922 18.4683 1.5625 18.4683H91.4065C92.2698 18.4683 92.969 19.1675 92.969 20.0308C92.969 20.8901 92.2698 21.5933 91.4065 21.5933Z" fill="#F0F0F0"/>
<path d="M15.4142 17.0044C12.9025 17.0044 10.6369 15.4927 9.67595 13.1724C8.71501 10.8521 9.24626 8.18017 11.0197 6.40677C12.797 4.62947 15.4689 4.09817 17.7892 5.05907C20.1095 6.02001 21.6212 8.28567 21.6212 10.7935V10.7974C21.6173 14.2232 18.84 17.0005 15.4142 17.0044ZM15.4142 7.71527V7.71136C14.1681 7.71136 13.0431 8.46527 12.5626 9.61756C12.0861 10.7699 12.3478 12.0942 13.2306 12.977C14.1134 13.8598 15.4415 14.1254 16.5939 13.6449C17.7462 13.1684 18.4962 12.0433 18.4962 10.7933V10.7972C18.4923 9.09414 17.1173 7.71527 15.4142 7.71527Z" fill="#F0F0F0"/>
<path d="M29.2814 17.0044C26.7697 17.0044 24.5041 15.4927 23.5431 13.1724C22.5822 10.8521 23.1134 8.18017 24.8869 6.40677C26.6642 4.62947 29.3361 4.09817 31.6564 5.05907C33.9767 6.02001 35.4884 8.28567 35.4884 10.7974C35.4845 14.2232 32.7072 17.0005 29.2814 17.0044ZM29.2814 7.71527V7.71136C28.0353 7.71136 26.9103 8.46527 26.4298 9.61756C25.9533 10.7699 26.215 12.0942 27.0978 12.977C27.9806 13.8598 29.3087 14.1254 30.4611 13.6449C31.6134 13.1684 32.3634 12.0433 32.3634 10.7933V10.7972C32.3595 9.09414 30.9845 7.71527 29.2814 7.71527Z" fill="#F0F0F0"/>
<path d="M43.1486 17.0044C40.6369 17.0044 38.3713 15.4927 37.4103 13.1724C36.4494 10.8521 36.9806 8.18017 38.7541 6.40677C40.5314 4.62947 43.2033 4.09817 45.5236 5.05907C47.8439 6.02001 49.3556 8.28567 49.3556 10.7974C49.3517 14.2232 46.5744 17.0005 43.1486 17.0044ZM43.1486 7.71527V7.71136C41.9025 7.71136 40.7775 8.46527 40.297 9.61756C39.8205 10.7699 40.0822 12.0942 40.965 12.977C41.8478 13.8598 43.1759 14.1254 44.3283 13.6449C45.4806 13.1684 46.2306 12.0433 46.2306 10.7933V10.7972C46.2267 9.09414 44.8517 7.71527 43.1486 7.71527Z" fill="#F0F0F0"/>
<path d="M82.2029 12.3594H52.7109C51.8477 12.3594 51.1484 11.6563 51.1484 10.7969C51.1484 9.9336 51.8477 9.23438 52.7109 9.23438H82.2029C83.0623 9.23438 83.7654 9.9336 83.7654 10.7969C83.7654 11.6563 83.0623 12.3594 82.2029 12.3594Z" fill="#F0F0F0"/>
<path d="M80.9138 70.7344H12.0508C11.1914 70.7344 10.4883 70.0313 10.4883 69.1719C10.4883 68.3086 11.1914 67.6094 12.0508 67.6094H80.9138C81.7771 67.6094 82.4763 68.3086 82.4763 69.1719C82.4763 70.0313 81.7771 70.7344 80.9138 70.7344Z" fill="#F0F0F0"/>
<path d="M80.9138 84.0544H12.0508C11.1914 84.0544 10.4883 83.3513 10.4883 82.4919C10.4883 81.6287 11.1914 80.9294 12.0508 80.9294H80.9138C81.7771 80.9294 82.4763 81.6287 82.4763 82.4919C82.4763 83.3513 81.7771 84.0544 80.9138 84.0544Z" fill="#F0F0F0"/>
<path d="M37.9071 63.5864C37.3641 63.5864 36.8602 63.3012 36.5751 62.8364C36.2938 62.3715 36.2743 61.7895 36.5243 61.3052L53.6723 28.0862C54.0786 27.3479 55.0043 27.0667 55.7543 27.4572C56.5082 27.844 56.8129 28.758 56.4457 29.5236L39.2977 62.7426C39.0282 63.2583 38.493 63.5864 37.9071 63.5864Z" fill="#F0F0F0"/>
<path d="M29.3284 56.2814C29.0081 56.2814 28.6956 56.1838 28.4338 56.0002L13.5898 45.6252V45.6291C13.1719 45.3361 12.9219 44.8596 12.9219 44.3479C12.9219 43.8401 13.1719 43.3596 13.5898 43.0706L28.4338 32.6956C29.1409 32.2034 30.1174 32.3753 30.6096 33.0823C31.1018 33.7893 30.93 34.7659 30.2229 35.2581L17.2149 44.3479L30.2229 53.4417V53.4378C30.7815 53.8323 31.0237 54.5394 30.8206 55.1917C30.6136 55.8401 30.0081 56.2854 29.3284 56.2814Z" fill="#F0F0F0"/>
<path d="M63.6395 56.2815C62.9598 56.2854 62.3543 55.8401 62.1473 55.1917C61.9442 54.5394 62.1863 53.8323 62.7449 53.4378L75.7529 44.344L62.7449 35.2542V35.2581C62.0379 34.7659 61.866 33.7893 62.3582 33.0823C62.8504 32.3753 63.827 32.2034 64.534 32.6956L79.378 43.0706C79.796 43.3596 80.046 43.8401 80.046 44.3479C80.046 44.8596 79.796 45.3362 79.378 45.6291L64.534 56.0041V56.0002C64.2723 56.1838 63.9598 56.2815 63.6395 56.2815Z" fill="#F0F0F0"/>
</svg>
