<svg width="97" height="101" viewBox="0 0 97 101" fill="none" xmlns="http://www.w3.org/2000/svg">
<path d="M90.7304 19.1748H78.4294L81.3982 8.10084C81.8513 6.46024 81.6326 4.70244 80.7888 3.22194C79.9411 1.74144 78.5388 0.659442 76.8943 0.218042C75.2459 -0.223368 73.492 0.0110118 72.0193 0.870382C70.5466 1.72975 69.4763 3.13988 69.0505 4.79228L65.195 19.1753H5.293C2.375 19.1792 0.0039 21.5464 0 24.4683V79.3003C0.003907 82.2222 2.375 84.5894 5.293 84.5933H37.867V91.6792H36.4334C34.1248 91.6831 32.2576 93.5542 32.2576 95.8589V98.6675C32.2576 99.0308 32.4021 99.3784 32.656 99.6323C32.9139 99.8901 33.2615 100.035 33.6248 100.035H62.3978C62.7611 100.035 63.1087 99.8901 63.3665 99.6362C63.6205 99.3784 63.765 99.0308 63.765 98.6675V95.8589C63.765 93.5542 61.8978 91.6831 59.5892 91.6792H58.1556V84.5933H90.7296C93.6476 84.5894 96.0187 82.2222 96.0226 79.3003V24.4683C96.0187 21.5464 93.6484 19.1787 90.7304 19.1748ZM67.5504 20.956C67.5582 20.9287 67.566 20.9014 67.5738 20.8701L71.691 5.4991C72.2145 3.5499 74.2183 2.3897 76.1676 2.9132C78.1207 3.43664 79.277 5.4405 78.7535 7.3937L67.3395 49.9957L60.277 48.0973L67.5504 20.956ZM65.8121 52.417L61.6441 57.1162L60.3824 50.96L65.8121 52.417ZM59.5894 94.417C60.3863 94.421 61.0269 95.0655 61.0269 95.8623V97.3037H34.9919V95.8623C34.9919 95.0655 35.6325 94.417 36.4333 94.4131L59.5894 94.417ZM40.6014 91.6787V84.5928H55.4214V91.6787H40.6014ZM93.2854 79.2997C93.2854 80.7099 92.1409 81.8544 90.7307 81.8583H5.29268C3.88248 81.8544 2.73798 80.7099 2.73798 79.2997V73.7138H93.289L93.2854 79.2997ZM93.2854 70.9794H2.73838V24.4674C2.73838 23.0533 3.88288 21.9088 5.29308 21.9088H64.4611L57.2775 48.7098H57.2814C57.2228 48.913 57.2189 49.1278 57.2619 49.3348L59.5119 60.3468C59.6173 60.8546 59.9962 61.257 60.4962 61.3937C60.6134 61.425 60.7306 61.4406 60.8517 61.4406C61.2423 61.4406 61.6134 61.2726 61.8751 60.9797L69.3282 52.5735C69.4688 52.4172 69.5704 52.2258 69.6251 52.0227L77.6954 21.9097H90.7304C92.1406 21.9097 93.2851 23.0542 93.2851 24.4683L93.2854 70.9794ZM44.7233 77.788C44.7233 77.0341 45.3327 76.4208 46.0866 76.4208H49.9382C50.6765 76.4404 51.2663 77.0458 51.2663 77.788C51.2663 78.5302 50.6764 79.1357 49.9382 79.1552H46.0866C45.7272 79.1552 45.3796 79.0107 45.1217 78.7568C44.8639 78.499 44.7194 78.1513 44.7233 77.788ZM44.4577 41.862H37.4108C37.4108 41.7253 37.4225 41.5925 37.4225 41.4636C37.4264 36.5534 34.5319 32.1081 30.0475 30.1196C25.5592 28.1352 20.3209 28.9829 16.6925 32.2837C13.0597 35.5845 11.7198 40.7173 13.2706 45.3697C14.8214 50.0259 18.9737 53.3306 23.8606 53.7916V62.4596C23.8606 63.2135 24.4739 63.8229 25.2278 63.8229H44.4618C45.2157 63.8229 45.829 63.2135 45.829 62.4596V43.2326C45.829 42.8693 45.6844 42.5217 45.4305 42.2639C45.1727 42.006 44.8251 41.8615 44.4618 41.8615L44.4577 41.862ZM23.8597 43.2331V51.0456C20.0863 50.5886 16.9339 47.9597 15.805 44.3308C14.6761 40.7019 15.7776 36.7488 18.6253 34.2288C21.4691 31.7093 25.5276 31.0921 28.9923 32.6546C32.4571 34.2132 34.6837 37.6624 34.6837 41.4632C34.6837 41.6 34.6798 41.7328 34.6719 41.8617H25.2266C24.8634 41.8617 24.5157 42.0062 24.2579 42.264C24.0001 42.5218 23.8597 42.8699 23.8597 43.2331ZM34.1607 44.6003C32.9966 47.9558 30.0982 50.405 26.5982 50.987V44.5964L34.1607 44.6003ZM43.0982 61.0923H26.5982V53.7446C31.606 53.0962 35.7232 49.479 37.0122 44.5962H43.0903L43.0982 61.0923Z" fill="#F0F0F0"/>
</svg>
