<svg width="24" height="25" viewBox="0 0 24 25" fill="none" xmlns="http://www.w3.org/2000/svg">
<path d="M24.0005 14.3038V25H19.2789V16.1392C19.2789 10.8069 12.9833 11.2025 12.9833 16.1392V25H8.26172V7.59491H12.9833V10.3956C15.1868 6.29744 24.0005 6.01263 24.0005 14.3038Z" fill="#F0F0F0"/>
<path d="M5.11421 7.59491H0.392578V25H5.11421V7.59491Z" fill="#F0F0F0"/>
<path d="M5.50744 2.84811C5.49198 3.39212 5.31739 3.9195 5.0055 4.36433C4.6936 4.80916 4.25824 5.15173 3.75379 5.34923C3.24935 5.54673 2.6982 5.5904 2.16921 5.47479C1.64021 5.35918 1.15684 5.08942 0.779477 4.6992C0.402116 4.30898 0.147503 3.81562 0.0474512 3.28076C-0.0526007 2.7459 0.0063458 2.19325 0.216925 1.69188C0.427505 1.1905 0.780379 0.762632 1.23146 0.461726C1.68254 0.16082 2.21181 0.000222415 2.75316 2.30773e-07C3.12158 -0.000150978 3.48628 0.0740064 3.82568 0.218082C4.16508 0.362159 4.47228 0.573225 4.72909 0.838788C4.98591 1.10435 5.18712 1.41901 5.32081 1.76415C5.45451 2.10928 5.51797 2.47788 5.50744 2.84811Z" fill="#F0F0F0"/>
</svg>
