<svg width="50" height="50" viewBox="0 0 50 50" fill="none" xmlns="http://www.w3.org/2000/svg">
<path d="M27.3535 27.4423V22.2913H45.9147V27.4423H27.3535Z" fill="#F0F0F0"/>
<path d="M29.6016 49.5774C27.9756 49.8799 26.5542 48.5554 26.5542 46.9015V3.09848C26.5542 1.44458 27.9756 0.120064 29.6016 0.422592C30.8689 0.658382 31.7052 1.80151 31.7052 3.09058V46.9094C31.7052 48.1985 30.8689 49.3416 29.6016 49.5774Z" fill="#F0F0F0"/>
<path d="M23.8004 47.6558C23.7328 48.9311 22.6413 49.9213 21.3776 49.7362C15.8535 48.9275 10.7338 46.2871 6.8612 42.2042C2.45593 37.5596 0.000162373 31.4021 8.05176e-09 25.0006C-0.000162357 18.5992 2.45529 12.4415 6.86033 7.79673C10.7327 3.71359 15.8523 1.07302 21.3764 0.263947C22.6401 0.0788651 23.7316 1.06893 23.7992 2.3443C23.8668 3.61967 22.8836 4.69498 21.6241 4.90656C17.2839 5.63567 13.2732 7.75595 10.2162 10.9793C6.62606 14.7649 4.62487 19.7833 4.625 25.0005C4.62513 30.2177 6.62658 35.2361 10.2169 39.0214C13.274 42.2446 17.2848 44.3647 21.6251 45.0936C22.8847 45.3051 23.8679 46.3804 23.8004 47.6558Z" fill="#833CF2"/>
<path d="M41.0425 8.95752C41.9456 8.05443 43.4192 8.04813 44.235 9.03077C45.9949 11.1506 47.3958 13.5511 48.3763 16.1372C49.6306 19.4457 50.1684 22.9827 49.9541 26.5144C49.7397 30.0462 48.7782 33.4922 47.1329 36.6247C45.8469 39.0733 44.166 41.2867 42.1626 43.1781C41.234 44.0549 39.772 43.8705 38.9847 42.8648C38.1975 41.8591 38.3855 40.4143 39.2955 39.5182C40.793 38.0437 42.0568 36.343 43.0383 34.4741C44.3792 31.9212 45.1629 29.1126 45.3376 26.2343C45.5123 23.3559 45.074 20.4732 44.0517 17.7768C43.3033 15.803 42.2545 13.9619 40.9463 12.3171C40.1513 11.3175 40.1394 9.8606 41.0425 8.95752Z" fill="#F0F0F0"/>
<path d="M19.1829 1.86501H22.8011C23.3534 1.86501 23.8011 2.31273 23.8011 2.86501V12.2558C23.8011 13.531 22.7673 14.5648 21.492 14.5648C20.2167 14.5648 19.1829 13.531 19.1829 12.2558V1.86501Z" fill="#833CF2"/>
<path d="M23.8011 47.4245H19.8496C19.4814 47.4245 19.1829 47.126 19.1829 46.7578V37.7442C19.1829 36.469 20.2167 35.4352 21.492 35.4352C22.7673 35.4352 23.8011 36.469 23.8011 37.7442V47.4245Z" fill="#833CF2"/>
</svg>
