<svg width="89" height="94" viewBox="0 0 89 94" fill="none" xmlns="http://www.w3.org/2000/svg">
<path d="M87.2549 94H1.7451C0.781804 94 0 93.2129 0 92.243C0 67.5394 19.9639 47.4393 44.5 47.4393C69.0361 47.4393 89 67.5394 89 92.243C89 93.2129 88.2182 94 87.2549 94ZM3.52859 90.486H85.4749C84.557 68.5304 66.5301 50.9533 44.5035 50.9533C22.4769 50.9533 4.44302 68.5304 3.52859 90.486ZM44.5 39.972C33.5547 39.972 24.6478 31.0077 24.6478 19.9842C24.6478 8.96075 33.5547 0 44.5 0C55.4453 0 64.3522 8.96426 64.3522 19.9877C64.3522 31.0112 55.4453 39.972 44.5 39.972ZM44.5 3.51402C35.4813 3.51402 28.138 10.904 28.138 19.9877C28.138 29.0715 35.4813 36.4579 44.5 36.4579C53.5222 36.4579 60.862 29.068 60.862 19.9842C60.862 10.9005 53.5222 3.51402 44.5 3.51402Z" fill="#F0F0F0"/>
</svg>
