<svg width="147" height="129" viewBox="0 0 147 129" fill="none" xmlns="http://www.w3.org/2000/svg">
<path d="M11.4733 10.2917C11.4733 8.88727 12.6218 7.73247 14.0324 7.73247C15.4367 7.73247 16.5915 8.88097 16.5915 10.2917C16.5915 11.6961 15.443 12.8509 14.0324 12.8509C12.6218 12.8509 11.4733 11.7149 11.4733 10.2917ZM24.3682 12.8509C25.7725 12.8509 26.9272 11.7024 26.9272 10.2917C26.9272 8.88727 25.7788 7.73247 24.3682 7.73247C22.9638 7.73247 21.8091 8.88097 21.8091 10.2917C21.8091 11.7148 22.9451 12.8509 24.3682 12.8509ZM34.6915 12.8509C36.0958 12.8509 37.2505 11.7024 37.2505 10.2917C37.2505 8.88727 36.1021 7.73247 34.6915 7.73247C33.2871 7.73247 32.1324 8.88097 32.1324 10.2917C32.1324 11.7148 33.2809 12.8509 34.6915 12.8509ZM83.9185 11.796H110.364C111.194 11.796 111.868 11.1219 111.868 10.2917C111.868 9.46157 111.194 8.78745 110.364 8.78745H83.9185C83.0884 8.78745 82.4143 9.46157 82.4143 10.2917C82.4143 11.1219 83.0884 11.796 83.9185 11.796ZM60.2261 56.5999V61.6808C60.2261 63.0727 59.2337 64.2711 57.8606 64.5083L55.0332 65.0201C54.5839 66.618 53.9472 68.1661 53.1296 69.6203L54.7773 71.986C55.5762 73.1345 55.4326 74.6887 54.4402 75.6625L50.8451 79.2578C49.8528 80.2503 48.3049 80.3751 47.1689 79.5949L44.8033 77.9471C43.3491 78.7648 41.8012 79.4015 40.2159 79.8509L39.7041 82.6784C39.4482 84.0516 38.2685 85.0441 36.8767 85.0441H31.7962C30.4043 85.0441 29.2059 84.0516 28.9688 82.6784L28.457 79.8509C26.8592 79.4014 25.3113 78.7648 23.8571 77.9471L21.4915 79.5949C20.3431 80.3938 18.8077 80.2503 17.8153 79.2578L14.2202 75.6625C13.2278 74.6701 13.103 73.1408 13.8832 71.986L15.5308 69.6203C14.7132 68.166 14.0766 66.618 13.6272 65.0326L10.7685 64.5082C9.39541 64.2523 8.40298 63.0726 8.40298 61.6807V56.5999C8.40298 55.2079 9.39537 54.0095 10.7685 53.7724L13.5959 53.2605C14.0453 51.6626 14.6819 50.1146 15.4995 48.6603L13.8518 46.2946C13.0529 45.1461 13.1965 43.6106 14.1889 42.6181L17.784 39.0228C18.7763 38.0304 20.3242 37.9055 21.4602 38.6858L23.8258 40.3335C25.28 39.5158 26.8279 38.8792 28.4133 38.4298L28.9251 35.6023C29.181 34.229 30.3606 33.2366 31.7524 33.2366H36.8329C38.2248 33.2366 39.4232 34.229 39.6603 35.6023L40.1721 38.4298C41.7699 38.8792 43.3178 39.5159 44.7596 40.3335L47.1251 38.6858C48.2735 37.8868 49.8277 38.0304 50.8014 39.0228L54.3964 42.6181C55.3888 43.6106 55.5137 45.1398 54.7335 46.2946L53.0858 48.6603C53.9035 50.1147 54.5401 51.6626 54.9895 53.2481L57.8168 53.7599C59.2336 54.0096 60.2261 55.1955 60.2261 56.5999ZM57.2174 56.6942L54.4026 56.1823C53.3166 55.9888 52.4365 55.1899 52.1493 54.1225C51.7499 52.6993 51.1882 51.3448 50.4579 50.0465C49.9149 49.0728 49.9648 47.9056 50.6015 46.9942L52.2304 44.6472L48.7788 41.1954L46.432 42.8244C45.5207 43.4611 44.3535 43.511 43.3798 42.968C42.1003 42.2502 40.7271 41.6759 39.3041 41.2764C38.2306 40.9706 37.4503 40.1092 37.2444 39.0231L36.7513 36.2267H31.8767L31.3649 39.0418C31.1714 40.1278 30.3725 41.008 29.3052 41.2951C27.9008 41.6946 26.5277 42.2564 25.2295 42.9867C24.2558 43.5297 23.0887 43.4798 22.1773 42.8431L19.8304 41.214L16.3789 44.6659L18.0078 47.0129C18.6445 47.9242 18.6944 49.0914 18.1514 50.0652C17.4336 51.3448 16.8594 52.7181 16.4599 54.1412C16.1541 55.2148 15.2928 55.9951 14.2067 56.201L11.3918 56.7129V61.5878L14.2067 62.0996C15.2927 62.2931 16.1728 63.092 16.4599 64.1595C16.8594 65.5639 17.4211 66.9371 18.1514 68.2354C18.6944 69.2091 18.6444 70.3763 18.0078 71.2877L16.3789 73.6347L19.8304 77.0866L22.1773 75.4575C23.0886 74.8208 24.2682 74.7709 25.2295 75.3139C26.509 76.0317 27.8821 76.606 29.3052 77.0055C30.3787 77.3113 31.1589 78.1727 31.3649 79.2589L31.8767 82.0739L36.7513 82.0676L37.2631 79.2526C37.4566 78.1665 38.2555 77.2864 39.3228 76.9992C40.7272 76.5998 42.1003 76.038 43.3985 75.3077C44.3722 74.7646 45.5393 74.8146 46.4507 75.4512L48.7976 77.0803L52.2491 73.6285L50.6202 71.2815C49.9835 70.3702 49.9336 69.1905 50.4766 68.2292C51.1944 66.9496 51.7686 65.5763 52.1681 64.1532C52.4739 63.0796 53.3352 62.2993 54.4213 62.0933L57.2362 61.5815V56.6941L57.2174 56.6942ZM46.9751 59.1409C46.9751 66.1255 41.3016 71.7994 34.3174 71.7994C27.3332 71.7994 21.6597 66.1255 21.6597 59.1409C21.6597 52.1562 27.3332 46.4824 34.3174 46.4824C41.2892 46.4699 46.9751 52.1562 46.9751 59.1409ZM43.973 59.1409C43.973 53.8229 39.6415 49.4909 34.3237 49.4909C29.0058 49.4909 24.6743 53.8227 24.6743 59.1409C24.6743 64.4591 29.0058 68.7908 34.3237 68.7908C39.6415 68.7908 43.973 64.4591 43.973 59.1409ZM147 121.872C147 123.788 146.264 125.579 144.922 126.921C143.58 128.263 141.788 129 139.872 129C137.956 129 136.165 128.263 134.823 126.921L122.746 114.843C121.997 114.094 121.578 113.102 121.578 112.047C121.578 111.616 121.66 111.198 121.803 110.799L114.232 103.227C108.977 107.029 102.698 109.126 96.0938 109.126C87.8987 109.126 80.4526 105.899 74.8908 100.687H8.93146C4.01323 100.687 0 96.6735 0 91.755V8.93201C0 4.01348 4.01323 0 8.93146 0H112.901C117.819 0 121.833 4.01348 121.833 8.93201V54.3479L131.994 50.7526C132.412 50.609 132.874 50.6402 133.242 50.8649C133.623 51.0896 133.879 51.4579 133.96 51.8886L139.315 80.814C139.427 81.3882 139.19 81.9812 138.71 82.3183C138.229 82.6553 137.605 82.6865 137.093 82.3994L128.879 77.6555C128.286 78.3421 127.681 78.9975 127.057 79.6342C126.77 85.6889 124.741 91.4251 121.24 96.2493L128.798 103.808C129.198 103.683 129.616 103.584 130.047 103.584C131.101 103.584 132.106 104.002 132.862 104.751L144.939 116.829C146.262 118.164 147 119.974 147 121.872ZM131.328 54.173L108.322 62.3249L114.807 66.0825C115.157 66.2885 115.413 66.6068 115.513 67.0063C115.606 67.3871 115.562 67.8053 115.35 68.1548C111.437 74.7524 105.682 79.902 98.7171 83.0478C95.8272 84.3586 92.6129 85.3199 89.436 85.8442C93.0124 87.0925 96.8196 87.7479 100.639 87.7479C111.106 87.7479 120.837 83.0354 127.34 74.8211C127.802 74.2282 128.62 74.0846 129.275 74.4529L135.779 78.2105L131.328 54.173ZM103.267 61.8567C103.317 61.2824 103.716 60.7706 104.259 60.5771L107.505 59.4286C104.084 57.3376 100.202 56.2141 96.1141 56.2141C84.0369 56.2141 74.2257 66.0387 74.2257 78.1039C74.2257 90.1819 84.0497 99.9937 96.1141 99.9937C104.677 99.9937 112.367 94.9753 115.924 87.4164C111.212 89.5572 106.031 90.6934 100.663 90.6934C94.3969 90.6934 88.2179 89.0954 82.7695 86.0931C82.1641 85.7561 81.877 85.057 82.0517 84.4016C82.2265 83.7462 82.8194 83.2843 83.506 83.2843H83.5247C88.0622 83.3467 93.1615 82.2481 97.5056 80.282C103.448 77.598 108.434 73.3285 111.98 67.8795L104.009 63.2792C103.51 62.9921 103.223 62.4309 103.267 61.8567ZM3.00413 8.93225V17.5773H118.826V8.93225C118.826 5.65525 116.174 3.00256 112.897 3.00256L8.93377 3.0088C5.65698 3.0088 3.00413 5.66164 3.00413 8.93225ZM8.93345 97.6851H72.079C67.7162 92.3484 65.0948 85.5259 65.0948 78.1106C65.0948 61.0146 79.0132 47.0952 96.1084 47.0952C104.241 47.0952 111.831 50.2098 117.647 55.8338L118.845 55.4156V20.5796L3.00381 20.5858V91.7552C3.00381 95.0322 5.65682 97.6851 8.93345 97.6851ZM96.0958 106.118C110.095 106.118 121.566 96.0683 123.72 82.63C122.503 83.6038 121.23 84.5026 119.919 85.314C116.755 95.7503 107.074 103.003 96.1151 103.003C82.3902 103.003 71.2244 91.8362 71.2244 78.1106C71.2244 64.3849 82.3904 53.2184 96.1151 53.2184C101.483 53.2184 106.726 54.9911 111.007 58.1869L114.459 56.9573C109.36 52.5132 102.937 50.085 96.1159 50.085C80.662 50.085 68.1046 62.6436 68.1046 78.098C68.1046 93.5466 80.6625 106.117 96.0983 106.117L96.0958 106.118ZM116.592 101.343L123.62 108.371L126.367 105.624L119.351 98.6087C118.827 99.2016 118.315 99.7759 117.735 100.331C117.36 100.687 116.979 101.006 116.592 101.343ZM143.998 121.873C143.998 120.768 143.568 119.713 142.8 118.952L130.723 106.874C130.548 106.699 130.292 106.586 130.036 106.586C129.78 106.586 129.543 106.68 129.349 106.874L124.862 111.361C124.687 111.536 124.575 111.792 124.575 112.048C124.575 112.304 124.668 112.541 124.862 112.735L136.939 124.813C137.719 125.593 138.762 126.011 139.86 126.011C140.977 126.011 142.02 125.58 142.781 124.813C143.567 124.032 143.998 122.996 143.998 121.873Z" fill="#F0F0F0"/>
</svg>
